<svg width="170" height="90" fill="none" xmlns="http://www.w3.org/2000/svg"><rect x=".5" y=".5" width="169" height="89" rx="3.5" stroke="#AFB1B8"/><path d="M85.74 43.353a3.258 3.258 0 01-.57-2.057v-2.983c0-.914.19-1.609.567-2.084.379-.475 1.028-.712 1.949-.71.865 0 1.48.202 1.843.607.396.516.589 1.147.545 1.784v.7h-1.548v-.71a3.961 3.961 0 00-.045-.694.689.689 0 00-.221-.413.836.836 0 00-.561-.16.886.886 0 00-.59.17.81.81 0 00-.256.455c-.045.243-.065.49-.061.737v3.62a2 2 0 00.198 1.016.735.735 0 00.31.246.78.78 0 00.399.058.788.788 0 00.548-.164.747.747 0 00.23-.44c.037-.24.053-.483.049-.725v-.735h1.548v.67a2.914 2.914 0 01-.536 1.876c-.355.443-.961.664-1.852.664-.891 0-1.564-.236-1.946-.728zM92.186 43.384c-.391-.465-.587-1.141-.587-2.036V38.21c0-.886.196-1.556.587-2.011.39-.455 1.044-.682 1.961-.68.91 0 1.56.227 1.952.68.39.455.59 1.125.59 2.011v3.138c0 .886-.2 1.565-.596 2.033-.398.467-1.045.7-1.946.7-.9 0-1.567-.236-1.961-.697zm2.682-.753c.14-.29.204-.61.186-.928V37.86a1.843 1.843 0 00-.183-.91.738.738 0 00-.316-.25.785.785 0 00-.408-.053.794.794 0 00-.41.054.749.749 0 00-.317.25c-.141.283-.205.596-.186.91v3.859c-.02.32.044.638.186.928a.96.96 0 00.326.23 1.009 1.009 0 00.796 0 .96.96 0 00.326-.23v-.018zM98.55 35.61h1.667l1.253 5.79 1.282-5.79h1.622l.163 8.356h-1.198l-.128-5.807-1.238 5.807h-.961l-1.282-5.828-.119 5.828H98.4l.15-8.355zM106.406 35.61h2.596c1.495 0 2.243.791 2.243 2.373 0 1.515-.787 2.271-2.362 2.27h-.884v3.713h-1.603l.01-8.355zm2.218 3.571c.158.02.319.006.471-.04.152-.045.292-.122.41-.224.184-.282.265-.613.231-.943a2.892 2.892 0 00-.077-.758.635.635 0 00-.118-.23.668.668 0 00-.203-.168 1.526 1.526 0 00-.714-.133h-.622v2.496h.622zM113.556 35.61h1.721l1.766 8.356h-1.494l-.349-1.927h-1.535l-.359 1.927h-1.516l1.766-8.355zm1.471 5.462l-.599-3.508-.6 3.508h1.199zM118.469 35.61h1.122l2.147 4.767V35.61h1.33v8.355h-1.067l-2.16-4.976v4.976h-1.375l.003-8.355zM126.183 40.78l-1.785-5.158h1.503l1.09 3.313 1.022-3.313h1.471l-1.762 5.158v3.186h-1.539V40.78zM88.215 47.619v.437h-1.308v3.395h-.548v-3.395h-1.314v-.437h3.17zM92.314 51.451h-.423a.176.176 0 01-.119-.036.196.196 0 01-.07-.088l-.379-.91H89.51l-.379.91a.257.257 0 01-.057.103.183.183 0 01-.119.036h-.423l1.603-3.831h.557l1.622 3.816zm-2.654-1.423h1.513l-.641-1.56a2.964 2.964 0 01-.119-.36l-.06.203-.058.16-.635 1.557zM95.076 51.075c.1.005.201.005.302 0 .086-.009.172-.024.256-.046a1.82 1.82 0 00.23-.07c.071-.027.142-.06.216-.094v-.861h-.641a.12.12 0 01-.087-.03.084.084 0 01-.032-.07v-.295h1.244v1.469a2.355 2.355 0 01-.677.312 2.653 2.653 0 01-.4.08 4.455 4.455 0 01-.468.024 2.252 2.252 0 01-.808-.143 1.935 1.935 0 01-.64-.4 1.849 1.849 0 01-.414-.607 2.074 2.074 0 01-.148-.795 2.155 2.155 0 01.145-.801c.092-.228.233-.434.413-.607.183-.173.401-.308.641-.398.274-.098.566-.146.859-.143.15 0 .298.011.445.034.13.02.258.053.382.097.112.04.22.09.32.152.099.06.192.127.28.2l-.155.237a.14.14 0 01-.052.052.15.15 0 01-.073.02.196.196 0 01-.1-.03 1.906 1.906 0 01-.156-.09 1.369 1.369 0 00-.215-.104 1.869 1.869 0 00-.295-.085 2.256 2.256 0 00-.407-.033 1.743 1.743 0 00-.618.106c-.179.068-.34.171-.471.303-.133.138-.235.3-.299.477a1.953 1.953 0 000 1.277c.07.18.18.345.321.483.132.131.291.234.468.303.204.066.42.092.635.076zM100.185 51.014h1.75v.437H99.65v-3.832h.548l-.013 3.395zM103.755 51.45h-.548V47.62h.548v3.832zM105.794 47.637a.27.27 0 01.083.07l2.343 2.889a1.036 1.036 0 010-.137v-2.855h.477v3.847h-.275a.242.242 0 01-.119-.021.318.318 0 01-.086-.073l-2.34-2.885v2.979h-.458V47.62h.285c.031 0 .062.006.09.018zM112.732 47.619v.422h-1.942v1.265h1.574v.406h-1.574v1.308h1.942v.422h-2.506v-3.823h2.506zM55.303 23.954l24.335 6.541v22.922L55.303 46.88V23.954zM53.743 22v25.992l27.453 7.382v-25.99L53.743 22z" fill="#AFB1B8"/><path d="M68.457 67.44L41 60.052v-25.99l27.457 7.385V67.44z" fill="#AFB1B8"/><path d="M54.198 23.66l24.018 6.459L68 39.79l-24.02-6.462 10.217-9.67zM53.743 22L41 34.063l27.457 7.385 12.739-12.063L53.743 22zM70.001 65.978l11.195-10.6-11.195-3.013v13.613z" fill="#AFB1B8"/></svg>