<svg width="170" height="90" fill="none" xmlns="http://www.w3.org/2000/svg"><rect x=".5" y=".5" width="169" height="89" rx="3.5" stroke="#AFB1B8"/><path d="M81.977 21.934h.137c.253 0 .526.026.796.049 1.193.084 2.377.262 3.542.534v-2.863c-1.2-.301-2.422-.496-3.655-.583A29.224 29.224 0 0081.319 19h-.427c-2.475.01-4.94.327-7.337.946-2.73.68-5.35 1.747-7.783 3.166v28.397a31.633 31.633 0 017.42-2.892 32.36 32.36 0 016.227-.956h.084c.352-.018.703-.028 1.065-.03v-2.91a34.329 34.329 0 00-8.095 1.076c-.98.255-1.925.53-2.813.834l-1.012.344V24.833l.433-.208a28.276 28.276 0 0110.516-2.683.63.63 0 01.09 0c.403-.02.808-.03 1.205-.03h.455c.21.005.42.01.63.023z" fill="#AFB1B8"/><path d="M89.11 24.933a25.925 25.925 0 01-4.234-.344 22.97 22.97 0 01-1.323-.267v28.072c1.82.45 3.69.67 5.565.656a29.943 29.943 0 007.337-.944 29.809 29.809 0 007.786-3.166V21.05a31.765 31.765 0 01-7.417 2.893c-2.52.648-5.111.98-7.713.99zm11.225.485l1.012-.34v22.148l-.432.209a27.779 27.779 0 01-5.174 1.859c-2.163.56-4.386.847-6.62.857-.668 0-1.33-.028-1.973-.084l-.693-.061V27.228l.807.054a28.38 28.38 0 001.854.056 34.263 34.263 0 008.406-1.078c.944-.25 1.882-.529 2.813-.842zM67.737 61.212a1.492 1.492 0 00-1.126-.455 1.672 1.672 0 00-.65.122 1.462 1.462 0 00-.832.842c-.08.2-.119.413-.116.628v3.794c-.01.267.042.533.149.778.09.195.219.368.38.509.151.127.329.22.52.27.185.051.376.078.567.078.211.002.42-.043.612-.132a1.599 1.599 0 00.96-1.465v-.424h-.992v.338a.883.883 0 01-.059.338.609.609 0 01-.144.214.697.697 0 01-.415.145.503.503 0 01-.465-.204.898.898 0 01-.132-.508v-3.538c-.006-.196.036-.39.122-.567a.507.507 0 01.485-.229.527.527 0 01.443.214.807.807 0 01.165.509v.328h.981v-.387a1.788 1.788 0 00-.121-.664 1.564 1.564 0 00-.332-.534zM73.629 61.17a1.765 1.765 0 00-1.128-.418c-.202 0-.403.037-.592.107A1.558 1.558 0 0071 61.7c-.1.231-.15.482-.145.735v3.638c-.006.256.043.51.145.746.09.195.22.369.384.508.152.14.33.25.524.32.19.07.39.106.592.107a1.714 1.714 0 001.128-.427c.158-.142.285-.315.374-.508.102-.235.151-.49.144-.746v-3.639a1.77 1.77 0 00-.144-.734 1.644 1.644 0 00-.374-.532zm-.463 4.904a.654.654 0 01-.197.527.726.726 0 01-.934 0 .652.652 0 01-.197-.527v-3.639a.656.656 0 01.197-.526.726.726 0 01.934 0 .651.651 0 01.197.526v3.64zM81.367 67.7v-6.89h-.953l-1.253 3.647h-.017l-1.263-3.646h-.943v6.888h.984v-4.19h.017l.964 2.962h.491l.972-2.962h.017v4.19h.984zM86.958 61.294c-.151-.17-.343-.3-.556-.377a2.184 2.184 0 00-.714-.107h-1.462v6.89h.981v-2.691h.506c.307.014.611-.051.886-.188a1.43 1.43 0 00.539-.527c.113-.183.19-.387.225-.6a4.9 4.9 0 00.053-.783c.01-.33-.023-.662-.096-.984a1.465 1.465 0 00-.362-.633zm-.506 2.1a.868.868 0 01-.091.359.552.552 0 01-.253.241 1.006 1.006 0 01-.463.087h-.448v-2.342h.506a.943.943 0 01.443.086.557.557 0 01.23.254c.054.121.083.252.086.384v.458c0 .16.01.326 0 .473h-.01zM91.608 60.81h-.805l-1.518 6.89h.982l.288-1.48h1.338l.289 1.48h.981l-1.555-6.89zm-.906 4.471l.483-2.497h.018l.48 2.497h-.981zM97.95 64.96h-.018l-1.483-4.15h-.943v6.89h.981v-4.143h.02l1.5 4.142h.924v-6.888h-.981v4.15zM103.948 60.81l-.79 2.74h-.02l-.789-2.74h-1.04l1.348 3.978v2.911h.982v-2.911l1.348-3.977h-1.039zM65 69.644h.473v1.328h.321v-1.328h.47v-.272H65v.272zM68.977 69.372l-.62 1.6h.341l.132-.364h.638l.136.364h.35l-.636-1.6h-.341zm-.05.967l.217-.593.217.593h-.435zM72.908 70.382h.37v.206a.613.613 0 01-.38.135.404.404 0 01-.34-.153.67.67 0 01-.118-.417c0-.356.154-.534.46-.534a.337.337 0 01.362.255l.316-.061c-.068-.313-.293-.47-.678-.47a.804.804 0 00-.559.205.78.78 0 00-.23.615.872.872 0 00.205.6.776.776 0 00.607.234.96.96 0 00.678-.254v-.63h-.693v.27zM76.923 69.372h-.324v1.6h1.12V70.7h-.796v-1.328zM80.317 69.372h-.323v1.6h.323v-1.6zM83.636 70.44l-.655-1.068h-.313v1.6h.3v-1.045l.643 1.045h.322v-1.6h-.297v1.069zM86.637 70.267h.797v-.272h-.797v-.35h.857v-.273h-1.181v1.6h1.214V70.7h-.89v-.433zM93.912 70.003h-.63v-.63h-.321v1.599h.321v-.7h.63v.7h.322v-1.6h-.322v.631zM96.93 70.267h.8v-.272h-.8v-.35h.86v-.273H96.61v1.6h1.212V70.7h-.89v-.433zM101.023 70.268c.279-.044.42-.191.42-.445a.38.38 0 00-.157-.356.901.901 0 00-.468-.094h-.678v1.599h.322v-.669h.063a.433.433 0 01.2.036c.047.029.086.069.114.117l.349.508h.384l-.195-.312a1.11 1.11 0 00-.354-.384zm-.324-.222h-.237v-.401h.253a.838.838 0 01.326.038.212.212 0 01.046.255.213.213 0 01-.061.07.915.915 0 01-.327.038zM104.11 70.267h.796v-.272h-.796v-.35h.86v-.273h-1.184v1.6H105V70.7h-.89v-.433z" fill="#AFB1B8"/></svg>